<mxfile host="65bd71144e">
    <diagram id="hn6" name="Fat Controllers">
        <mxGraphModel dx="932" dy="583" grid="0" gridSize="10" guides="1" tooltips="1" connect="1" arrows="1" fold="1" page="1" pageScale="1" pageWidth="1169" pageHeight="827" background="#fafafa" math="0" shadow="0">
            <root>
                <mxCell id="page_root_hn6"/>
                <mxCell id="node_root_hn6" parent="page_root_hn6"/>
                <mxCell id="xLSgLBnB-I_RfziK7SGa-5" value="" style="whiteSpace=wrap;html=1;align=left;fillColor=#eeeeee;rounded=0;strokeColor=#36393d;" vertex="1" parent="node_root_hn6">
                    <mxGeometry x="396" y="354" width="450" height="205" as="geometry"/>
                </mxCell>
                <mxCell id="xLSgLBnB-I_RfziK7SGa-3" value="" style="whiteSpace=wrap;html=1;align=left;fillColor=#eeeeee;rounded=0;strokeColor=#36393d;" vertex="1" parent="node_root_hn6">
                    <mxGeometry x="396" y="137" width="450" height="205" as="geometry"/>
                </mxCell>
                <mxCell id="xLSgLBnB-I_RfziK7SGa-1" style="edgeStyle=none;shape=connector;rounded=1;html=1;exitX=1.008;exitY=0.43;exitDx=0;exitDy=0;entryX=-0.004;entryY=0.53;entryDx=0;entryDy=0;entryPerimeter=0;labelBackgroundColor=default;fontFamily=Helvetica;fontSize=11;fontColor=default;endArrow=classic;strokeColor=#b85450;fillColor=#f8cecc;exitPerimeter=0;" edge="1" parent="node_root_hn6" source="hn6-2" target="hn6-4">
                    <mxGeometry relative="1" as="geometry"/>
                </mxCell>
                <mxCell id="xLSgLBnB-I_RfziK7SGa-2" style="edgeStyle=none;shape=connector;rounded=1;html=1;exitX=1;exitY=0.596;exitDx=0;exitDy=0;entryX=0.011;entryY=0.663;entryDx=0;entryDy=0;entryPerimeter=0;labelBackgroundColor=default;fontFamily=Helvetica;fontSize=11;fontColor=default;endArrow=classic;strokeColor=#b85450;fillColor=#f8cecc;exitPerimeter=0;" edge="1" parent="node_root_hn6" source="hn6-2" target="hn6-5">
                    <mxGeometry relative="1" as="geometry"/>
                </mxCell>
                <mxCell id="xLSgLBnB-I_RfziK7SGa-7" style="edgeStyle=none;shape=connector;rounded=1;html=1;exitX=1;exitY=0.913;exitDx=0;exitDy=0;labelBackgroundColor=default;fontFamily=Helvetica;fontSize=11;fontColor=default;endArrow=classic;strokeColor=#b85450;fillColor=#f8cecc;exitPerimeter=0;" edge="1" parent="node_root_hn6" source="hn6-2" target="hn6-7">
                    <mxGeometry relative="1" as="geometry"/>
                </mxCell>
                <mxCell id="hn6-2" value="&lt;p style=&quot;margin:0px;margin-left:4px;margin-bottom:4px;text-align:center&quot;&gt;&lt;b&gt;Reports#sales_by_profit&lt;/b&gt;&lt;/p&gt;&lt;hr size=&quot;1&quot;/&gt;&lt;h3 style=&quot;margin:0px;margin-left:4px;margin-bottom:6.912px&quot;&gt;Fat Controller&lt;/h3&gt;&lt;h5 style=&quot;margin:0px;margin-left:4px;margin-bottom:4.8px&quot;&gt;Param marshalling&lt;/h5&gt;&lt;p style=&quot;margin:0px;margin-left:4px;margin-bottom:4px&quot;&gt;params[:date_from]&lt;/p&gt;&lt;p style=&quot;margin:0px;margin-left:4px;margin-bottom:4px&quot;&gt;params[:date_to]&lt;/p&gt;&lt;p style=&quot;margin:0px;margin-left:4px;margin-bottom:4px&quot;&gt;params[:sort] || &quot;gross_sales&quot;&lt;/p&gt;&lt;p style=&quot;margin:0px;margin-left:4px;margin-bottom:4px&quot;&gt;params[:direction] || &quot;desc&quot;&lt;/p&gt;&lt;p style=&quot;margin:0px;margin-left:4px;margin-bottom:4px&quot;&gt;params[:filter_str]&lt;/p&gt;&lt;h5 style=&quot;margin:0px;margin-left:4px;margin-bottom:4.8px&quot;&gt;Dynamic query construction&lt;/h5&gt;&lt;p style=&quot;margin:0px;margin-left:4px;margin-bottom:4px&quot;&gt;switch params[:filter_str]&lt;/p&gt;&lt;p style=&quot;margin:0px;margin-left:4px;margin-bottom:4px&quot;&gt;invoice_date_query&lt;/p&gt;&lt;p style=&quot;margin:0px;margin-left:4px;margin-bottom:4px&quot;&gt;ugly query&lt;/p&gt;&lt;hr size=&quot;1&quot;/&gt;&lt;h5 style=&quot;margin:0px;margin-left:4px;margin-bottom:4.8px&quot;&gt;Query in controller&lt;/h5&gt;&lt;p style=&quot;margin:0px;margin-left:4px;margin-bottom:4px&quot;&gt;ActiveRecord::Base.connection.execute(query)&lt;/p&gt;&lt;hr size=&quot;1&quot;/&gt;&lt;h5 style=&quot;margin:0px;margin-left:4px;margin-bottom:4.8px&quot;&gt;Build outputs&lt;/h5&gt;&lt;p style=&quot;margin:0px;margin-left:4px;margin-bottom:4px&quot;&gt;@net_sales_total&lt;/p&gt;&lt;p style=&quot;margin:0px;margin-left:4px;margin-bottom:4px&quot;&gt;@vat_total&lt;/p&gt;&lt;p style=&quot;margin:0px;margin-left:4px;margin-bottom:4px&quot;&gt;@gross_sales_total&lt;/p&gt;&lt;p style=&quot;margin:0px;margin-left:4px;margin-bottom:4px&quot;&gt;@document_data&lt;/p&gt;&lt;h5 style=&quot;margin:0px;margin-left:4px;margin-bottom:4.8px&quot;&gt;Composite outputs&lt;/h5&gt;&lt;p style=&quot;margin:0px;margin-left:4px;margin-bottom:4px&quot;&gt;params[:sort]&lt;/p&gt;&lt;p style=&quot;margin:0px;margin-left:4px;margin-bottom:4px&quot;&gt;params[:direction]&lt;/p&gt;" style="whiteSpace=wrap;html=1;rounded=0;fillColor=#ffe6cc;strokeColor=#d79b00;fontColor=#333333;align=left;overflow=fill;fontSize=12;fontFamily=Helvetica" parent="node_root_hn6" vertex="1">
                    <mxGeometry x="35" y="74" width="255" height="427" as="geometry"/>
                </mxCell>
                <mxCell id="hn6-3" value="&lt;b&gt;Paramater marshalling&lt;/b&gt;&lt;br&gt;&lt;br&gt;reading the params[] object&lt;br&gt;setting sane defaults&lt;br&gt;&lt;i&gt;should not alter and reuse params[]&lt;/i&gt;" style="whiteSpace=wrap;html=1;rounded=0;fillColor=#d5e8d4;strokeColor=#82b366;fontColor=#333333;shape=mxgraph.basic.cloud_rect" parent="node_root_hn6" vertex="1">
                    <mxGeometry x="407" y="13" width="200" height="120" as="geometry"/>
                </mxCell>
                <mxCell id="hn6-4" value="&lt;b&gt;Dynamic query construction&lt;/b&gt;&lt;br&gt;&lt;br&gt;query = &quot;select ...&quot;&lt;br&gt;&lt;i&gt;ActiveRelation vs interpolation&lt;/i&gt;" style="whiteSpace=wrap;html=1;rounded=0;fillColor=#d5e8d4;strokeColor=#82b366;fontColor=#333333;shape=mxgraph.basic.cloud_rect" parent="node_root_hn6" vertex="1">
                    <mxGeometry x="407" y="149" width="200" height="120" as="geometry"/>
                </mxCell>
                <mxCell id="hn6-5" value="&lt;b&gt;Query in controller&lt;/b&gt;&lt;br&gt;&lt;i&gt;Move out to Query object&lt;/i&gt;" style="whiteSpace=wrap;html=1;rounded=0;fillColor=#d5e8d4;strokeColor=#82b366;fontColor=#333333;shape=mxgraph.basic.cloud_rect" parent="node_root_hn6" vertex="1">
                    <mxGeometry x="635" y="202" width="200" height="120" as="geometry"/>
                </mxCell>
                <mxCell id="hn6-6" value="&lt;b&gt;Build outputs&lt;/b&gt;&lt;br&gt;Multiple @instance vars&lt;br&gt;&lt;i&gt;single view model @vm&lt;/i&gt;" style="whiteSpace=wrap;html=1;rounded=0;fillColor=#d5e8d4;strokeColor=#82b366;fontColor=#333333;shape=mxgraph.basic.cloud_rect" parent="node_root_hn6" vertex="1">
                    <mxGeometry x="407" y="363" width="200" height="83" as="geometry"/>
                </mxCell>
                <mxCell id="hn6-7" value="&lt;b&gt;Composite outputs&lt;/b&gt;&lt;br&gt;sort, direction, page_no, page_size&lt;br&gt;&lt;i&gt;single order, page or list object&lt;/i&gt;" style="whiteSpace=wrap;html=1;rounded=0;fillColor=#d5e8d4;strokeColor=#82b366;fontColor=#333333;shape=mxgraph.basic.cloud_rect" parent="node_root_hn6" vertex="1">
                    <mxGeometry x="635" y="429" width="200" height="120" as="geometry"/>
                </mxCell>
                <mxCell id="xLSgLBnB-I_RfziK7SGa-0" style="edgeStyle=none;html=1;exitX=1;exitY=0.25;exitDx=0;exitDy=0;fillColor=#f8cecc;strokeColor=#b85450;entryX=0.021;entryY=0.455;entryDx=0;entryDy=0;entryPerimeter=0;" edge="1" parent="node_root_hn6" source="hn6-2" target="hn6-3">
                    <mxGeometry relative="1" as="geometry">
                        <mxPoint x="321" y="216" as="sourcePoint"/>
                        <mxPoint x="448" y="161.7312775330396" as="targetPoint"/>
                    </mxGeometry>
                </mxCell>
                <mxCell id="xLSgLBnB-I_RfziK7SGa-6" style="edgeStyle=none;shape=connector;rounded=1;html=1;exitX=0.997;exitY=0.796;exitDx=0;exitDy=0;entryX=-0.004;entryY=0.53;entryDx=0;entryDy=0;entryPerimeter=0;labelBackgroundColor=default;fontFamily=Helvetica;fontSize=11;fontColor=default;endArrow=classic;strokeColor=#b85450;fillColor=#f8cecc;exitPerimeter=0;" edge="1" parent="node_root_hn6" source="hn6-2">
                    <mxGeometry relative="1" as="geometry">
                        <mxPoint x="289.99999999999994" y="418.01" as="sourcePoint"/>
                        <mxPoint x="409.16" y="417" as="targetPoint"/>
                    </mxGeometry>
                </mxCell>
            </root>
        </mxGraphModel>
    </diagram>
    <diagram id="mBj" name="Thin Controllers">
        <mxGraphModel dx="932" dy="583" grid="0" gridSize="10" guides="1" tooltips="1" connect="1" arrows="1" fold="1" page="1" pageScale="1" pageWidth="1169" pageHeight="827" background="#fafafa" math="0" shadow="0">
            <root>
                <mxCell id="page_root_mBj"/>
                <mxCell id="node_root_mBj" parent="page_root_mBj"/>
                <mxCell id="21RrXMzRurO5l1FjHA6U-0" style="edgeStyle=none;html=1;exitX=1;exitY=0.25;exitDx=0;exitDy=0;fillColor=#f8cecc;strokeColor=#b85450;" parent="node_root_mBj" source="mBj-2" target="mBj-3" edge="1">
                    <mxGeometry relative="1" as="geometry"/>
                </mxCell>
                <mxCell id="21RrXMzRurO5l1FjHA6U-1" style="edgeStyle=none;shape=connector;rounded=1;html=1;exitX=1;exitY=0.5;exitDx=0;exitDy=0;entryX=0.027;entryY=0.547;entryDx=0;entryDy=0;entryPerimeter=0;labelBackgroundColor=default;fontFamily=Helvetica;fontSize=11;fontColor=default;endArrow=classic;strokeColor=#b85450;fillColor=#f8cecc;" parent="node_root_mBj" source="mBj-2" target="mBj-4" edge="1">
                    <mxGeometry relative="1" as="geometry"/>
                </mxCell>
                <mxCell id="21RrXMzRurO5l1FjHA6U-2" style="edgeStyle=none;shape=connector;rounded=1;html=1;exitX=1;exitY=0.75;exitDx=0;exitDy=0;entryX=0.017;entryY=0.455;entryDx=0;entryDy=0;entryPerimeter=0;labelBackgroundColor=default;fontFamily=Helvetica;fontSize=11;fontColor=default;endArrow=classic;strokeColor=#b85450;fillColor=#f8cecc;" parent="node_root_mBj" source="mBj-2" target="mBj-5" edge="1">
                    <mxGeometry relative="1" as="geometry"/>
                </mxCell>
                <mxCell id="21RrXMzRurO5l1FjHA6U-5" style="edgeStyle=none;shape=connector;rounded=1;html=1;entryX=0.002;entryY=0.48;entryDx=0;entryDy=0;entryPerimeter=0;labelBackgroundColor=default;fontFamily=Helvetica;fontSize=11;fontColor=default;endArrow=classic;strokeColor=#b85450;fillColor=#f8cecc;exitX=0.987;exitY=1.02;exitDx=0;exitDy=0;exitPerimeter=0;" parent="node_root_mBj" source="mBj-3" target="21RrXMzRurO5l1FjHA6U-4" edge="1">
                    <mxGeometry relative="1" as="geometry"/>
                </mxCell>
                <mxCell id="mBj-2" value="&lt;p style=&quot;margin:0px;margin-left:4px;margin-bottom:4px;text-align:center&quot;&gt;&lt;b&gt;Reports#sales_by_profit&lt;/b&gt;&lt;/p&gt;&lt;hr size=&quot;1&quot;/&gt;&lt;h3 style=&quot;margin:0px;margin-left:4px;margin-bottom:6.912px&quot;&gt;Thin Controller&lt;/h3&gt;&lt;h5 style=&quot;margin:0px;margin-left:4px;margin-bottom:4.8px&quot;&gt;Param marshalling&lt;/h5&gt;&lt;p style=&quot;margin:0px;margin-left:4px;margin-bottom:4px&quot;&gt;my_action_params()&lt;/p&gt;&lt;h5 style=&quot;margin:0px;margin-left:4px;margin-bottom:4.8px&quot;&gt;Call query&lt;/h5&gt;&lt;p style=&quot;margin:0px;margin-left:4px;margin-bottom:4px&quot;&gt;MyActionQuery.query(scope, **inputs)&lt;/p&gt;&lt;hr size=&quot;1&quot;/&gt;&lt;h5 style=&quot;margin:0px;margin-left:4px;margin-bottom:4.8px&quot;&gt;Present&lt;/h5&gt;&lt;p style=&quot;margin:0px;margin-left:4px;margin-bottom:4px&quot;&gt;@vm = MyActionPresenter.new(**outputs)&lt;/p&gt;" style="whiteSpace=wrap;html=1;rounded=0;fillColor=#ffe6cc;strokeColor=#d79b00;fontColor=#333333;align=left;overflow=fill;fontSize=12;fontFamily=Helvetica" parent="node_root_mBj" vertex="1">
                    <mxGeometry x="72" y="167" width="249" height="196" as="geometry"/>
                </mxCell>
                <mxCell id="mBj-3" value="&lt;b&gt;Param marshaling&lt;/b&gt;&lt;br&gt;&lt;br&gt;@sales_by_profit_params ||= &lt;br&gt;params.permit(...)&lt;br&gt;&amp;nbsp;&amp;nbsp;.symbolize_keys" style="whiteSpace=wrap;html=1;rounded=0;fillColor=#d5e8d4;strokeColor=#82b366;fontColor=#333333;shape=mxgraph.basic.cloud_rect" parent="node_root_mBj" vertex="1">
                    <mxGeometry x="448" y="59" width="200" height="120" as="geometry"/>
                </mxCell>
                <mxCell id="mBj-4" value="&lt;b&gt;Call Query&lt;/b&gt;&lt;br&gt;&lt;br&gt;SalesByProfitQuery&lt;br&gt;&amp;nbsp;&amp;nbsp;.query(scope, **custom, **params)" style="whiteSpace=wrap;html=1;rounded=0;fillColor=#d5e8d4;strokeColor=#82b366;fontColor=#333333;shape=mxgraph.basic.cloud_rect" parent="node_root_mBj" vertex="1">
                    <mxGeometry x="448" y="202" width="200" height="120" as="geometry"/>
                </mxCell>
                <mxCell id="mBj-5" value="&lt;b&gt;Present&lt;/b&gt;&lt;br&gt;&lt;br&gt;SalesByProfitPresenter&lt;br&gt;&amp;nbsp;&amp;nbsp;.new(**query.outputs)" style="whiteSpace=wrap;html=1;rounded=0;fillColor=#d5e8d4;strokeColor=#82b366;fontColor=#333333;shape=mxgraph.basic.cloud_rect" parent="node_root_mBj" vertex="1">
                    <mxGeometry x="448" y="351" width="200" height="120" as="geometry"/>
                </mxCell>
                <mxCell id="21RrXMzRurO5l1FjHA6U-3" value="&lt;b&gt;Form Object&lt;/b&gt;&lt;br&gt;&lt;br&gt;" style="whiteSpace=wrap;html=1;rounded=0;fillColor=#d5e8d4;strokeColor=#82b366;fontColor=#333333;shape=mxgraph.basic.cloud_rect" parent="node_root_mBj" vertex="1">
                    <mxGeometry x="671" y="59" width="200" height="53" as="geometry"/>
                </mxCell>
                <mxCell id="21RrXMzRurO5l1FjHA6U-4" value="&lt;b&gt;Query#contract&lt;/b&gt;" style="whiteSpace=wrap;html=1;rounded=0;fillColor=#d5e8d4;strokeColor=#82b366;fontColor=#333333;shape=mxgraph.basic.cloud_rect" parent="node_root_mBj" vertex="1">
                    <mxGeometry x="671" y="169" width="200" height="53" as="geometry"/>
                </mxCell>
            </root>
        </mxGraphModel>
    </diagram>
</mxfile>